#N canvas 320 200 582 298 10;
#X obj 91 156 morse~;
#X obj 91 190 output~;
#X obj 91 129 tgl 15 0 empty empty empty 17 7 0 10 -262144 -1 -1 1
1;
#X msg 124 103 msg test message;
#X msg 150 63 msg Shtokhausen Spiral for soloist and short wave receiver
receiver;
#X connect 0 0 1 0;
#X connect 0 0 1 1;
#X connect 2 0 0 0;
#X connect 3 0 0 1;
#X connect 4 0 0 1;
