#N canvas 356 167 731 331 10;
#X declare -lib mrpeach;
#X obj 258 31 import mrpeach;
#X obj 99 106 udpreceive~ 8008 1 512;
#X msg 99 70 info;
#X obj 228 132 print;
#X obj 99 31 r info;
#X obj 160 31 loadbang;
#X msg 160 70 buffer 2;
#X obj 381 31 tcpreceive 8001;
#X obj 381 59 unpackOSC;
#X obj 540 112 print unknown osc;
#X msg 381 156 \; pd dsp \$1;
#X obj 434 125 s info;
#X obj 99 244 dac~ 1 2;
#X obj 381 87 routeOSC /dsp /info /volume;
#X obj 99 209 *~;
#X obj 114 184 line~;
#X msg 114 160 \$1 100;
#X obj 114 135 r \$0-volume;
#X obj 487 148 clip 0 2;
#X obj 487 176 s \$0-volume;
#X obj 497 32 loadbang;
#X msg 497 56 /volume 1;
#X connect 1 0 14 0;
#X connect 1 2 3 0;
#X connect 1 3 3 0;
#X connect 2 0 1 0;
#X connect 4 0 2 0;
#X connect 5 0 6 0;
#X connect 6 0 1 0;
#X connect 7 0 8 0;
#X connect 8 0 13 0;
#X connect 13 0 10 0;
#X connect 13 1 11 0;
#X connect 13 2 18 0;
#X connect 13 3 9 0;
#X connect 14 0 12 0;
#X connect 14 0 12 1;
#X connect 15 0 14 1;
#X connect 16 0 15 0;
#X connect 17 0 16 0;
#X connect 18 0 19 0;
#X connect 20 0 21 0;
#X connect 21 0 13 0;
