#N canvas 510 154 607 400 10;
#X declare -lib mrpeach;
#X obj 71 228 udpsend~ 1 512;
#X obj 71 255 tgl 50 0 empty empty empty 17 7 0 10 -228856 -4034 -1
1 1;
#X obj 71 27 loadbang;
#X obj 292 23 import mrpeach;
#X msg 71 53 format 16bit \, channels 1 \, info \, connect 255.255.255.255
8008;
#X obj 99 86 tgl 15 0 empty empty empty 17 7 0 10 -262144 -1 -1 1 1
;
#X obj 129 113 osc~ 440;
#X obj 254 208 tcpsend;
#X msg 254 129 connect pi2-1 8001;
#X obj 254 235 tgl 15 0 empty empty empty 17 7 0 10 -262144 -1 -1 1
1;
#X obj 334 176 packOSC;
#X msg 334 153 send /test;
#X msg 414 153 send /info;
#X obj 500 129 tgl 15 0 empty empty empty 17 7 0 10 -262144 -1 -1 1
1;
#X msg 500 153 send /dsp \$1;
#X floatatom 129 86 5 0 0 0 - - -;
#X obj 129 206 *~;
#X obj 144 185 tgl 15 0 empty empty empty 17 7 0 10 -262144 -1 -1 0
1;
#X obj 144 137 keyup;
#X obj 144 161 sel 32;
#X connect 0 0 1 0;
#X connect 2 0 4 0;
#X connect 4 0 0 0;
#X connect 5 0 0 0;
#X connect 6 0 16 0;
#X connect 7 0 9 0;
#X connect 8 0 7 0;
#X connect 10 0 7 0;
#X connect 11 0 10 0;
#X connect 12 0 10 0;
#X connect 13 0 14 0;
#X connect 14 0 10 0;
#X connect 15 0 6 0;
#X connect 16 0 0 0;
#X connect 17 0 16 1;
#X connect 18 0 19 0;
#X connect 19 0 17 0;
